<?xml version="1.0" encoding="utf-8"?>
<!-- Generator: Adobe Illustrator 20.0.0, SVG Export Plug-In . SVG Version: 6.00 Build 0)  -->
<svg version="1.1" id="Ebene_1" xmlns="http://www.w3.org/2000/svg" xmlns:xlink="http://www.w3.org/1999/xlink" x="0px" y="0px"
	 viewBox="0 0 250 157" style="enable-background:new 0 0 250 157;" xml:space="preserve">
<style type="text/css">
	.st0{fill:#F6F6F6;}
	.st1{fill:#1D1D1B;}
	.st2{fill:none;stroke:#1D1D1B;stroke-width:2.920000e-02;stroke-miterlimit:3.8637;}
</style>
<!--<rect class="st0" width="250" height="157"/>-->
<g>
	<path class="st1" d="M74.5,113.9c-0.9-0.4-2.4-0.8-4-1.2c0.1,0.9,0.2,1.7,0.3,2.4C72.1,114.7,73.3,114.3,74.5,113.9L74.5,113.9z
		 M70.5,111.9c2,0.5,4.1,1.1,4.9,1.6c0.7-0.3,1.4-0.6,2.1-0.9c-1.2-0.7-4.2-1.6-6.9-2.4C70.5,110.8,70.5,111.4,70.5,111.9
		L70.5,111.9z M75.6,114.3C75.5,114.3,75.5,114.3,75.6,114.3c-2.3,0.9-4.5,1.5-6.7,2c0,0-0.1,0-0.1,0c-2,0.4-4,0.7-6,0.8
		c0,0-0.1,0-0.1,0c-6.6,0.4-12.8-0.9-17.5-3L45,114c0,0-0.1,0-0.1-0.1c-7.9-3.7-11.5-10.2-3.7-15.4c-0.8-1.3-1.8-2.6-2.9-3.9
		c-0.3-0.4-0.7-0.9-1-1.3c-0.6,1.6-0.7,2.7,0.3,4.1c0.1,0.2,0.1,0.3,0,0.5l-5.5,6.6c-0.1,0.2-0.4,0.2-0.5,0
		c-27.6-30.3,3.9-76.2,41.9-63c0.2,0.1,0.3,0.3,0.2,0.5l-6,9.9c-0.1,0.1-0.2,0.2-0.4,0.2c-1.9-0.3-3-0.2-3.8,0.5
		c1.7,0.3,3.5,0.7,5.3,1.4c1.6-1.8,3.4-3.5,5.2-5c0,0,0.1,0,0.1-0.1c0.1-0.1,0.2-0.1,0.3,0c0.1,0,0.2,0.1,0.2,0.2c0,0,0,0.1,0,0.1
		L78,59.4c0,0.1,0,0.2,0,0.3c0,0.1-0.1,0.2-0.2,0.2c-0.1,0.1-0.2,0.1-0.3,0.2c0.7,2.1,5.6,16.9,7.1,20.9c0.5,1.2,1.5,3.5,1.5,4.8
		c0,1.3-0.9,2-2.8,2.1c-1,0.9-1.1,1.3-0.6,1.9c1,1.4,0.5,2-0.7,2.9c1.1,0.9,0.9,2.5,0.3,2.5c-0.8,0-1.1,0.3-1.6,0.9
		c3.5,3.4,0.6,6.4-4.1,7.4c-1.5,0.3-3.2,0.5-5,0.4c0,0,0,0,0,0.1c-0.6,2-1,3.9-1.1,5.6c3.1,0.9,6.8,2,7.8,2.8c0,0,0.1,0.1,0.1,0.1
		c0.1,0.1,0.1,0.2,0.1,0.3c0,0.1-0.1,0.2-0.2,0.2c0,0-0.1,0-0.1,0.1C77.4,113.5,76.5,113.9,75.6,114.3L75.6,114.3z M42.9,100.7
		c0,0,0,0.1,0,0.1c0.2,0.9,0.3,1.8,0.3,2.8c2.2-1.5,1.6-4,1-5.2c-0.6,0.4-1.1,0.7-1.7,1.1C42.6,99.9,42.7,100.3,42.9,100.7
		L42.9,100.7z M42.3,101.4c-1.6,1-2.3,2.1-2.4,3.3c1-0.1,1.9-0.4,2.5-0.7C42.5,103.1,42.4,102.2,42.3,101.4L42.3,101.4z M39.8,105.4
		c0,0.5,0.2,0.9,0.4,1.4c5-0.1,8.7-5,6-9.9c-0.5,0.4-1,0.8-1.5,1.1C45.7,99.9,46.6,104.7,39.8,105.4L39.8,105.4z M40.7,107.5
		c0.4,0.6,0.9,1.1,1.5,1.6c7.3-2.1,8.8-8.2,5.9-13.7c-0.4,0.4-0.8,0.7-1.3,1.1C49.9,101.8,45.9,107.1,40.7,107.5L40.7,107.5z
		 M42.9,109.6c0.7,0.4,1.5,0.8,2.3,1.1c9-4.5,6.8-13.8,4.8-17c-0.4,0.4-0.9,0.8-1.3,1.2C51.7,100.7,50.3,107.2,42.9,109.6
		L42.9,109.6z M70.9,73.2c3.1-1.2,7-1.8,10-0.9c-1.3-4-2.7-8.1-3.5-10.5c0,4-1.9,7.8-5.8,9.4C71.4,71.9,71.2,72.6,70.9,73.2
		L70.9,73.2z M69.8,73.8c0,0,0-0.1,0.1-0.1c0.5-0.8,0.9-1.7,1.1-2.7c0,0,0-0.1,0-0.1c0.2-0.8,0.2-1.7,0.2-2.6c0,0,0-0.1,0-0.1
		c0-0.6-0.1-1.3-0.3-2c-0.5,0.5-0.9,1-1.3,1.6c0.2,2.3-0.3,4.8-2.8,7c0.1,0.7,0.1,1.4,0,2.1C68.1,75.9,69.1,74.9,69.8,73.8
		L69.8,73.8z M51.4,95c0.2-0.8,0.6-1.4,1.2-2c-0.3-0.5-0.4-1.1-0.5-1.6c-0.5,0.6-1,1.1-1.6,1.7C50.8,93.7,51.1,94.3,51.4,95L51.4,95
		z M53.1,92.6c0.4-0.3,0.9-0.5,1.4-0.7c-0.3-0.7-0.5-1.6-0.6-2.6c-0.4,0.5-0.9,1-1.3,1.5C52.7,91.4,52.9,92,53.1,92.6L53.1,92.6z
		 M36.1,95.3c0-0.8,0.3-1.7,0.7-2.7c-1.8-2.6-3.4-6-3.9-11c0,0,0-0.1,0-0.1c0-0.5-0.1-1-0.1-1.5c0,0,0-0.1,0-0.1c0-0.2,0-0.3,0-0.5
		c-0.1-1.6,0-3.3,0.3-4.9c0,0,0-0.1,0-0.1c0.1-0.5,0.2-1,0.3-1.5c0,0,0-0.1,0-0.1c1.1-4.6,3.4-9,6.7-12.6c0,0,0.1-0.1,0.1-0.1
		c1-1,2.1-2,3.2-2.9l0,0c1.8-1.4,3.8-2.5,6-3.3c0,0,0,0,0.1,0c2.7-1,5.7-1.6,8.9-1.6c0.2,0,0.4,0,0.6,0c1.2,0,2.4,0.1,3.7,0.3
		c0.6-0.7,1.2-1.1,2.1-1.2c-0.1,0-0.1,0-0.2-0.1c0,0,0,0,0,0c-1.6-0.4-3.1-0.7-4.7-0.8l0,0c-8.2-0.5-16.2,3.1-21.6,9.1l0,0
		c-1.1,1.2-2.1,2.5-3,3.9c0,0,0,0,0,0.1c-0.8,1.3-1.5,2.7-2.1,4.1c0,0,0,0,0,0c-0.6,1.4-1.1,2.9-1.4,4.4c-1.4,5.9-0.9,12.4,2.3,19
		l0,0C34.4,92.5,35.2,93.9,36.1,95.3L36.1,95.3z M37.4,92.3c0,0,0.1,0.1,0.1,0.1c0.3,0.4,0.5,0.7,0.8,1.1c1.4-1.1,2.7-2.2,4-3.4
		c-0.6-0.3-1.2-0.6-1.7-0.9c-1,1-1.6,1.4-3.3,1.4c-0.3,0-0.4-0.2-0.3-0.5c0.3-0.9,0-3.2,0-4.4c-0.1-0.2-0.3-0.5-0.4-0.7
		c-0.4,0.1-1,0.1-1.7,0.1c-0.4,0-0.5-0.3-0.2-0.6c1.1-1,0.9-2.4,1.2-4.3c-0.6,0.3-1.8,1.1-2.2,1.4C34.1,86.5,35.7,89.8,37.4,92.3
		L37.4,92.3z M40.9,96.9c14.6-9.8,20.4-27.5,33.5-38.7l-1.9-0.4c-0.4-0.1-0.4-0.1-0.3-0.5l0.3-2.7C60.3,66.9,53.6,87.1,40,95.7
		C40.3,96.1,40.6,96.5,40.9,96.9L40.9,96.9z M74.8,52.3c-0.6,0.5-1.1,1-1.6,1.5l-0.4,3.4l2.2,0.5c0.4-0.3,0.8-0.7,1.3-1L76,55.7
		c-0.6,0.2-1.3-0.1-1.6-0.8c-0.2-0.6,0.1-1.3,0.8-1.6L74.8,52.3L74.8,52.3z M43.1,90.3c-1.4,1.3-2.8,2.6-4.4,3.8l0.1,0.1
		c0.2,0.3,0.5,0.6,0.7,0.9c7.2-4.5,12.4-12.3,17.6-20.5c4.5-7.2,9.3-15.2,15.4-21.2c0,0,0.1-0.1,0.1-0.1c0.6-0.6,1.3-1.2,1.9-1.8
		L74,50c-2.4,2-4.5,4.2-6.6,6.6c0,0,0,0.1-0.1,0.1c-3.9,4.7-7.2,10-10.3,14.9c-1.7,2.6-3.3,5.2-5.1,7.8c0,0,0,0.1-0.1,0.1
		c-0.7,1-1.5,2-2.2,3.1c0,0,0,0.1-0.1,0.1c-0.5,0.7-1.1,1.4-1.7,2.1c0,0,0,0.1-0.1,0.1c-0.8,1-1.7,2-2.6,3c0,0,0,0.1-0.1,0.1
		C44.6,88.7,43.8,89.5,43.1,90.3L43.1,90.3L43.1,90.3z M42.8,89.6c0.5-0.5,1.1-1.1,1.6-1.6c-3.3-0.5-5.2-2.1-5.9-4.1
		c-0.5,0.4-0.8,0.7-1.2,0.9c0.1,0.2,0.2,0.4,0.3,0.6c0,0,0.1,0.1,0.1,0.2C39,87.7,40.5,88.4,42.8,89.6L42.8,89.6z M44.9,87.3
		c0.5-0.6,1.1-1.2,1.6-1.8c-6.1,1.7-10-7.9,0.5-11.8c-0.8-0.3-1.5-0.5-2.2-0.9C38,75.8,35.7,86.1,44.9,87.3L44.9,87.3z M47.5,84.3
		c0.5-0.7,1.1-1.3,1.6-2c0.2-1.8-0.2-3.8-2.5-4.8c-0.6,0.3-1.2,0.7-1.7,1.2c3.3,0.5,3.2,4.7,0.2,4.7c-2.5,0-2.4-3.1-1.3-4.6
		c0,0,0-0.1,0.1-0.1l0,0c0.5-0.7,1.3-1.3,2.4-1.9c0,0,0.1,0,0.1-0.1c0.8-0.4,1.8-0.7,2.9-1c0,0,0.1,0,0.1,0c0.7-0.2,1.4-0.3,2.3-0.4
		c-0.6-0.3-1.4-0.5-2.1-0.8c-0.5-0.2-1-0.3-1.6-0.5C36.9,77.6,41.4,87.5,47.5,84.3L47.5,84.3z M49.8,81.2c0.5-0.7,1-1.4,1.5-2.1
		c-0.1-0.7-0.9-2-1.8-2.7c-0.7,0.2-1.4,0.4-2.1,0.7C49.2,78.1,49.8,79.7,49.8,81.2L49.8,81.2z M51.8,78.4c0.5-0.8,1-1.5,1.5-2.3
		c-0.1-0.1-0.3-0.2-0.4-0.3c-0.7,0.1-1.6,0.2-2.6,0.4C51,76.9,51.5,77.7,51.8,78.4L51.8,78.4z M53.7,75.6c0.5-0.8,1-1.6,1.6-2.4
		c-2-0.5-5.5-0.2-7.8-0.2c0.8,0.3,1.6,0.5,2.4,0.8c1.2,0.4,2.3,0.8,3.3,1.4c0,0,0.1,0,0.1,0.1C53.4,75.4,53.6,75.5,53.7,75.6
		L53.7,75.6z M55.7,72.5c0.4-0.6,0.7-1.2,1.1-1.7c-2.2-0.7-5.7-0.5-7.9-0.5c-2.6,0-5.4,0.1-7.5-0.5c1.1,1,2.5,1.8,4,2.4
		c1.1,0.2,3.8,0,4.7,0C52.1,72.2,54.3,72.2,55.7,72.5L55.7,72.5z M57.2,70.2c0.3-0.5,0.6-1,0.9-1.5c-2.8-1.1-7.3-0.7-10.2-0.7
		c-3.3,0-6.7-0.2-8.9-2c0.3,1.1,0.8,2,1.4,2.8c3.2,1.4,9.4,0.7,13.1,0.8C54.9,69.7,56.2,69.8,57.2,70.2L57.2,70.2z M58.5,68.1
		c0.3-0.5,0.6-1,1-1.5c-1.1-0.4-2.2-0.6-3.3-0.8c0,0-0.1,0-0.1,0c-2.8-0.4-5.6-0.3-8.6-0.3c-1.9,0-3.6-0.1-5.2-0.5c0,0-0.1,0-0.1,0
		c-1.3-0.4-2.4-1.1-3.3-2.4c-0.1,0.1-0.2,0.2-0.3,0.4c0,0.6,0.1,1.1,0.2,1.7c1.8,2.4,5.3,2.7,9.2,2.7C51,67.3,55.6,66.9,58.5,68.1
		L58.5,68.1z M67.2,55.9c0.3-0.4,0.7-0.8,1-1.2c-1.9-0.6-3.7-1.1-5.5-1.3c0,0-0.1,0-0.1,0c-0.8-0.1-1.6-0.2-2.4-0.3
		c0.3,0.4,0.5,1.1,0.5,1.9c0.4,0.4,0.7,0.9,0.7,1.4c0.5-0.3,1.2-0.4,2-0.2C64,54.8,66,54.5,67.2,55.9L67.2,55.9z M27.6,98.4l6.5-4.9
		c-0.3-0.6-0.6-1.1-0.9-1.7l-5.5,3.3c-0.4,0.2-0.8-0.4-0.4-0.6l5.5-3.4c-0.2-0.5-0.4-0.9-0.6-1.4l-7.5,3.5
		C25.6,95,26.6,96.7,27.6,98.4L27.6,98.4z M34.5,94.1L28,99c1.1,1.6,2.3,3.2,3.7,4.8l5.1-6.1c-0.3-0.5-0.7-0.9-1-1.4l-4.9,4.8
		c-0.3,0.3-0.8-0.2-0.5-0.5l5-4.9C35.1,95.2,34.8,94.6,34.5,94.1L34.5,94.1z M24.6,92.6l7.5-3.5c-0.2-0.5-0.4-1-0.5-1.5l-6.1,1.8
		c-0.5,0.1-0.7-0.6-0.2-0.7l6.1-1.8c-0.2-0.7-0.4-1.3-0.5-2l-8.1,1.7C23.1,88.7,23.8,90.6,24.6,92.6L24.6,92.6z M22.5,86l8.1-1.7
		c-0.1-0.6-0.2-1.2-0.3-1.7l-6.5,0.6c-0.5,0-0.5-0.7-0.1-0.7l6.5-0.6c-0.1-0.6-0.1-1.3-0.2-1.9l-8.3-0.2
		C21.8,81.8,22.1,83.9,22.5,86L22.5,86z M21.7,79l8.3,0.2c0-0.6,0-1.1,0-1.7l-6.4-0.7c-0.5-0.1-0.4-0.8,0.1-0.7l6.4,0.7
		c0-0.7,0.1-1.4,0.2-2.1L22.2,73C21.9,75,21.7,77,21.7,79L21.7,79z M22.3,72.3l8.1,1.7c0.1-0.6,0.2-1.1,0.3-1.6l-6.2-2
		c-0.5-0.1-0.2-0.8,0.2-0.7l6.1,1.9c0.1-0.5,0.3-1.1,0.4-1.6l-7.5-3.7C23.2,68.2,22.6,70.2,22.3,72.3L22.3,72.3z M24.1,65.6l7.4,3.7
		c0.2-0.5,0.4-1.1,0.6-1.6l-5.7-3.5c-0.4-0.2,0-0.9,0.4-0.6l5.6,3.4c0.2-0.6,0.5-1.1,0.8-1.7l-6.7-5.1C25.6,62,24.8,63.8,24.1,65.6
		L24.1,65.6z M26.8,59.7l6.7,5.1c0.2-0.4,0.5-0.9,0.8-1.3l-4.9-4.7c-0.3-0.3,0.2-0.8,0.5-0.5l4.8,4.6c0.4-0.6,0.7-1.1,1.1-1.6
		l-5.6-6.5C29,56.3,27.8,57.9,26.8,59.7L26.8,59.7z M30.6,54.2l5.6,6.5c0.4-0.4,0.7-0.9,1.1-1.3l-4.2-5.7c-0.3-0.4,0.3-0.8,0.6-0.4
		l4.1,5.6c0.4-0.4,0.8-0.9,1.3-1.3l-4.4-7.6C33.2,51.2,31.9,52.6,30.6,54.2L30.6,54.2z M35.2,49.4l4.4,7.6c0.4-0.3,0.8-0.7,1.2-1
		l-2.9-6.7c-0.2-0.4,0.5-0.7,0.7-0.3l2.8,6.5c0.5-0.4,1-0.8,1.6-1.1l-2.9-8.7C38.4,46.9,36.7,48.1,35.2,49.4L35.2,49.4z M40.7,45.4
		l2.9,8.7c0.5-0.3,0.9-0.6,1.4-0.8L43.3,46c-0.1-0.5,0.6-0.6,0.7-0.2l1.7,7c0.5-0.3,1-0.5,1.5-0.8l-1.3-9.4
		C44.1,43.5,42.4,44.4,40.7,45.4L40.7,45.4z M46.6,42.4l1.3,9.4c0.5-0.2,1.1-0.4,1.7-0.6l-0.3-7.8c0-0.5,0.7-0.5,0.7,0l0.2,7.6
		c0.5-0.2,1.1-0.3,1.7-0.5l0.7-9.8C50.5,41.1,48.5,41.7,46.6,42.4L46.6,42.4z M53.3,40.6l-0.7,9.8c0.6-0.1,1.3-0.3,1.9-0.3l1.2-7.7
		c0.1-0.5,0.8-0.4,0.7,0.1l-1.1,7.5c0.5-0.1,1-0.1,1.5-0.1l2.5-9.8C57.3,40,55.3,40.2,53.3,40.6L53.3,40.6z M60.1,40l-2.5,9.8
		c0.6,0,1.3,0,1.9,0l2.4-7.7c0.1-0.5,0.8-0.2,0.7,0.2l-2.4,7.5c0.6,0.1,1.2,0.1,1.8,0.2l4.1-9.6C64.1,40.1,62.1,40,60.1,40L60.1,40z
		 M66.8,40.6l-4.1,9.6c0.5,0.1,1.1,0.2,1.6,0.4l4-7.8c0.2-0.4,0.9-0.1,0.6,0.3l-4,7.6c0.7,0.2,1.4,0.4,2.1,0.7l5.6-9.3
		C70.7,41.4,68.8,40.9,66.8,40.6L66.8,40.6z M53.9,62.1c0,0.1,0,0.1-0.1,0.2c0,0.1-0.1,0.1-0.2,0.1c0,0,0,0-0.1,0
		c-0.6,0.1-1.2,0.1-1.8,0c-0.1,0.1-0.1,0.1-0.2,0.2c0.1,0.7,0.4,1.5,1.2,2.3c0.5,0,1.1,0,1.6,0.1l1.6-6.5c-1.8-0.5-2.2-3.6,0.1-4
		c0-0.5,0.2-1,0.5-1.3c-1.2,0.1-2.4,0.2-3.6,0.5l0.3,3.7c0,0,0,0.1,0,0.1l0,0.4c0,0.5-0.7,0.5-0.7,0.1l0-0.3l-1.5-1
		c-0.4,0.3-0.6,0.8-0.6,1.3c0,1,0.8,1.8,1.8,1.8c0.2,0,0.3,0,0.5-0.1l0-0.1c0-0.5,0.7-0.5,0.7-0.1l0,0.4c0,0,0,0.1,0,0.1L53.9,62.1
		C53.9,62,53.9,62.1,53.9,62.1L53.9,62.1z M51.3,55.5l0.2,0.1c0,0,0,0,0.1,0l1.2,0.8l-0.3-2.9c-0.9,0.2-1.8,0.5-2.7,0.8
		c-1.9,2-1.6,4.2-0.5,5.6c0,0,0.1,0.1,0.1,0.1c0.9,1.1,2.4,1.7,3.8,1.5L53,60.2c-0.2,0-0.4,0.1-0.6,0.1c-1.4,0-2.5-1.1-2.5-2.5
		c0-0.7,0.3-1.3,0.8-1.8C50.6,55.7,50.9,55.3,51.3,55.5L51.3,55.5z M50.9,62.1c-0.8-0.3-1.5-0.8-2-1.3c-2.5,0.6-4.7-1.2-5.5-2.8
		c-0.9,0.7-1.7,1.4-2.4,2.1l1.5,0.4c0,0,0,0,0.1,0l0.4,0.1c0.1,0,0.1,0,0.2,0.1c0.1,0,0.1,0.1,0.1,0.1C45,62.9,49.3,62.9,50.9,62.1
		L50.9,62.1z M48.4,60.1c-1-1.4-1.2-3.2,0-5.1c-1.6,0.7-3.1,1.6-4.4,2.6C44.6,58.9,46.4,60.4,48.4,60.1L48.4,60.1z M42.7,61.3
		L42.7,61.3c-0.3,0.7-0.3,2.2-0.1,3c1.4,0.4,3,0.5,4.8,0.5c1.5,0,3,0,4.4,0c-0.5-0.6-0.8-1.3-0.9-1.9C48.8,63.7,44.6,63.4,42.7,61.3
		L42.7,61.3z M43.9,72.4c-0.5-0.2-0.9-0.5-1.3-0.8c-0.5,0.4-1,0.8-1.5,1.1c0,0,0,0-0.1,0c-0.9,0.8-1.7,1.5-2.3,2.2c0,0,0,0-0.1,0.1
		c-0.3,0.3-0.5,0.6-0.7,1c0,0,0,0.1-0.1,0.1c-0.8,1.3-1.2,2.4-1.4,3.5c-0.3,1.5-0.1,3.5-1,4.8c1.4-0.1,1.8-0.5,2.6-1.3
		C37.4,79.3,40.1,74.4,43.9,72.4L43.9,72.4z M44.4,79.3c-0.1,0.1-0.2,0.3-0.3,0.4c-0.8,1.6,0.1,2.9,1,2.9
		C47.4,82.6,47.2,79.5,44.4,79.3L44.4,79.3z M40.3,72.5c-1.2-1-2.6-2-3.3-3.5c-0.1,0.8-0.1,1.6,0.1,2.3l0,0c0.3,1.2,0.9,2.2,1.4,2.9
		C39,73.7,39.6,73.1,40.3,72.5L40.3,72.5z M37.7,86.9c0.1,1,0.2,2,0,3c1.1-0.1,1.6-0.4,2.2-1C39.1,88.3,38.4,87.7,37.7,86.9
		L37.7,86.9z M37.3,73.6L36,74.3l0.7,1.5c0.3-0.1,0.5-0.2,0.8-0.3c0.2-0.2,0.4-0.5,0.6-0.8C37.8,74.4,37.6,74,37.3,73.6L37.3,73.6z
		 M33.4,80c0,0.3,0,0.6,0.1,0.9c0.7-0.5,1.8-1.2,2.4-1.4c0.2-0.9,0.5-1.8,1-2.8c-0.1,0-0.1,0.1-0.2,0.1c0,0,0,0,0,0
		C35.1,77.6,33.7,79.4,33.4,80L33.4,80z M33.5,75.4c-0.1,1.1-0.2,2.2-0.2,3.3c0.3-0.5,0.8-1,1.3-1.5L33.5,75.4L33.5,75.4z
		 M33.9,73.1c-0.1,0.4-0.2,0.9-0.2,1.3l1.5,2.5c0.3-0.2,0.5-0.4,0.8-0.6c-1.2-2.6-1.5-2,1-3.2c-0.2-0.4-0.3-0.8-0.5-1.2
		C35.9,72,34.8,72.4,33.9,73.1L33.9,73.1z M37.9,63.9c-1.7,2.5-3,5.3-3.7,8.2c0.8-0.5,1.6-0.8,2.2-1c-0.2-1.1-0.2-2.2,0.3-3.5
		c0.2-0.4,0.6-0.4,0.7,0.1c0.3,1.8,2.1,3.2,3.5,4.3c0.3-0.3,0.7-0.6,1.1-0.8C39.9,69.7,38.3,67.5,37.9,63.9L37.9,63.9z M40.4,60.7
		c-0.4,0.4-0.8,0.8-1.1,1.3c0.7,1,1.6,1.6,2.6,2.1c-0.1-0.9-0.1-2.1,0.1-2.9L40.4,60.7L40.4,60.7z M60.5,58.4
		c-0.3,0.2-0.7,0.3-1.2,0.3c-0.1,1-0.3,2.1-0.1,3.1l1.9-2C60.7,59.3,60.5,58.8,60.5,58.4L60.5,58.4z M58.3,60.5
		c-0.5-0.1-1.1-0.3-1.3-0.9c-0.1-0.2,0.7-0.1,0.8-0.1c0.2,0,0.4,0,0.6-0.1c0-0.4,0.1-0.8,0.2-1.2c0,0,0,0,0,0c0-0.1,0-0.3,0.1-0.4
		c0.1-0.5,0.8-0.4,0.7,0.1c2.1-0.2,1.7-3.2-0.5-2.7c-0.5,0.1-0.6-0.6-0.1-0.7c0.5-0.1,0.9-0.1,1.3,0c-0.2-3-4.9-1.2-2.2,1.1
		c0.4,0.3-0.1,0.9-0.5,0.5c-0.5-0.4-0.8-0.8-0.9-1.2c-1.6,0.3-1.2,2.3-0.1,2.6l0-0.1c0.1-0.5,0.8-0.3,0.7,0.2l-0.1,0.4c0,0,0,0,0,0
		L55.2,65c0.3,0,0.6,0.1,0.9,0.1l2.5-2.7C58.4,61.8,58.3,61.2,58.3,60.5L58.3,60.5z M61.9,63c-0.4-0.5-0.5-1.3-0.4-2
		c0.1-0.3,0.4,0.2,0.5,0.3c0.2,0.2,0.5,0.3,0.8,0.5c0.6-0.9,1.2-1.7,1.8-2.6c0.7-0.9,1.4-1.9,2.2-2.8c-1.2-1.5-3.3-0.6-2.7,1.7
		c0.1,0.5-0.6,0.6-0.7,0.2c-0.1-0.5-0.2-1-0.1-1.4c-1.6-0.5-2.7,0.9-1.7,2.3c0.3-0.3,0.8,0.2,0.5,0.5l-2.8,3c0,0-0.1,0.1-0.1,0.1
		l-2.2,2.4c1,0.2,2,0.4,3,0.8C60.5,65,61.2,64,61.9,63L61.9,63z M58.7,83c4-1.6,5.2-4.8,5-7.3c-0.9,1.3-1.8,2.6-2.6,3.9
		C60.3,80.7,59.5,81.8,58.7,83L58.7,83z M66.6,73.9c1.7-1.7,2.2-3.6,2.2-5.3c-0.9,1.2-1.8,2.4-2.7,3.6
		C66.3,72.8,66.5,73.3,66.6,73.9L66.6,73.9z M71.8,67.5c1.8-1.5,2.5-3,2.5-4.9c-1,0.9-1.9,1.8-2.8,2.8
		C71.6,66.2,71.7,66.9,71.8,67.5L71.8,67.5z M71.7,70.4c3.7-1.7,5.2-5.7,4.9-9.8c-0.6,0.4-1.2,0.9-1.7,1.4c0.2,2.5-0.7,4.5-3.1,6.3
		C71.8,69.1,71.8,69.8,71.7,70.4L71.7,70.4z M57.3,85.8C57.3,85.8,57.3,85.8,57.3,85.8c4.2-0.4,7.9-3.7,8.7-8.2c0,0,0-0.1,0-0.1
		c0.1-0.9,0.2-1.8,0.1-2.8c0,0,0-0.1,0-0.1c-0.1-0.6-0.2-1.1-0.4-1.7c-0.4,0.6-0.9,1.2-1.3,1.9c0.6,3.2-0.8,7.6-6.3,9.2
		c-0.4,0.6-0.9,1.2-1.4,1.8C56.9,85.8,57.1,85.8,57.3,85.8L57.3,85.8z M41.9,98.5C41.9,98.5,41.9,98.5,41.9,98.5
		c0.1,0.2,0.2,0.3,0.2,0.4c1.4-0.8,2.7-1.7,4-2.8c0,0,0,0,0.1,0c0.6-0.5,1.2-1,1.8-1.5c0,0,0.1-0.1,0.1-0.1c0.6-0.5,1.1-1.1,1.7-1.6
		c0,0,0-0.1,0.1-0.1c0.7-0.7,1.5-1.5,2.2-2.3c0,0,0.1-0.1,0.1-0.1c0.6-0.7,1.3-1.5,1.9-2.2c0-0.1,0.1-0.1,0.1-0.1
		c0.5-0.7,1.1-1.4,1.6-2.1c0-0.1,0,0,0.1-0.1c0.6-0.8,1.2-1.6,1.7-2.4c0,0,0-0.1,0.1-0.1c2.1-2.9,4.1-5.9,6.1-8.9c0,0,0-0.1,0.1-0.1
		c0.6-0.8,1.1-1.7,1.7-2.5c0,0,0-0.1,0.1-0.1c1-1.4,2-2.7,3-4c0.1-0.1,0.2-0.2,0.3-0.4c0,0,0-0.1,0.1-0.1c0.6-0.7,1.2-1.5,1.8-2.2
		c0,0,0-0.1,0.1-0.1c1.1-1.2,2.3-2.4,3.4-3.5c0,0,0.1-0.1,0.1-0.1c0.8-0.7,1.5-1.3,2.3-1.8c0,0,0.1-0.1,0.1-0.1l0.1-0.1
		c0,0,0,0,0.1,0c0.1-0.1,0.2-0.2,0.3-0.2l-0.7-2c-0.4,0.3-0.8,0.6-1.1,0.9c0,0,0,0-0.1,0.1C61.9,69.5,56.2,87.6,41.3,97.5
		C41.5,97.8,41.7,98.1,41.9,98.5L41.9,98.5z M54.7,99.8C54.7,99.8,54.8,99.8,54.7,99.8c0.4,0.1,0.7,0.1,1,0.1c0.9,0,1.7-0.3,2.4-0.8
		c0,0,0,0,0,0c0.8-0.7,1.3-1.7,1.3-2.8c0-0.6-0.1-1.1-0.3-1.5c0,0,0-0.1,0-0.1c-0.6-1.2-1.9-2.1-3.3-2.1c-0.2,0-0.4,0-0.5,0l-0.1,0
		c-0.7,0.1-1.3,0.4-1.8,0.8l-0.1,0c-0.8,0.7-1.3,1.7-1.3,2.8C52,97.9,53.1,99.4,54.7,99.8L54.7,99.8z M45.1,113.3
		c1.1-0.4,2.1-0.9,2.9-1.4c0,0,0.1-0.1,0.1-0.1c0.8-0.5,1.5-1.1,2.2-1.7c0,0,0-0.1,0.1-0.1c3.2-3.2,4.1-7.3,4-9.6
		c-0.7-0.2-1.4-0.7-1.9-1.2c0.4,4.1-0.9,9.1-7,12.1c-0.1,0.1-0.1,0.1-0.2,0.1c0,0-0.1,0-0.2,0c-1-0.3-2.1-0.9-3-1.5
		c-0.1-0.1-0.1-0.1-0.2-0.2c-0.8-0.6-1.5-1.4-2-2.2c-0.1-0.1-0.1-0.1-0.1-0.2c-1.2-2.1-1-4.5,2.4-6.5c-0.2-0.5-0.4-1-0.6-1.5
		C34.6,103.9,37.3,109.7,45.1,113.3L45.1,113.3z M48.3,112.5c-0.7,0.4-1.5,0.8-2.3,1.2c4.1,1.7,9.4,2.8,15,2.7
		C57.7,115.1,51.5,113.2,48.3,112.5L48.3,112.5z M50.7,110.7c-0.5,0.4-1,0.9-1.5,1.2c4,0.9,11.1,3.2,13.6,4.3
		c1.5-0.1,3.1-0.3,4.6-0.5C63.1,114.4,54.5,111.7,50.7,110.7L50.7,110.7z M55,100.6c0,2.4-0.8,6.4-3.8,9.6c4.4,1.1,14,4.1,17.5,5.4
		c0.5-0.1,1-0.2,1.4-0.3c-0.6-2.8-0.6-6.9,0.8-11.4c-4-0.3-8.5-1.5-12.7-4.1c-0.7,0.5-1.6,0.9-2.6,0.9
		C55.5,100.6,55.2,100.6,55,100.6L55,100.6z M55,90.9c0.1,0.3,0.2,0.6,0.3,0.9c0.1,0,0.3,0,0.4,0c0.7,0,1.4,0.2,2,0.5
		C58.1,90.3,56.2,89.5,55,90.9L55,90.9z M57.6,87.3c3.2,0.8,4.3,4.8,2.3,7.2c0.2,0.5,0.3,1.1,0.3,1.7c0,1.2-0.5,2.3-1.2,3.1
		c6.2,3.8,13.2,4.5,17.8,3.5c4.8-1,6.5-3.6,3.5-6.4c-0.5-0.5,0.9-1.8,2-1.9c0.1-0.7-0.2-1.2-0.7-1.5c-1.5-0.1-3.9,0.6-5.5,1
		c-0.1,0.3-0.6,0.4-0.7,0c-0.2-0.5,0.3-1.3,0.4-1.5c0.2-0.5,0.8-0.2,0.6,0.3c-0.1,0.1-0.2,0.3-0.2,0.5c1.6-0.4,3.8-1.1,5.4-1
		c0.4-0.3,1.4-1,1.2-1.6c-0.1-0.1-0.2-0.3-0.4-0.6c-0.8-1-0.4-1.7,0.3-2.5c-1.2-0.2-2.8,0-3.6,0.9c-0.5,0.5-1.3-0.9-1.4-1.1
		c-0.3-0.8-0.3-1.8,0.9-2.9c0.3-0.3,0.8,0.2,0.5,0.5c-0.9,0.9-1.2,1.8-0.3,2.7l0,0c1.3-1,3.1-1.2,4.6-0.8l0,0l0,0
		c2.7-0.2,2.5-1.3,1.8-3.2c-0.3-0.8-0.7-1.7-1-2.7c-0.6-1.5-1.7-4.6-2.8-8c-3.1-1.2-7.5-0.5-10.8,1c-0.8,1.3-2,2.5-3.7,3.7
		c-0.8,4.6-4.6,8.1-9,8.6L57.6,87.3L57.6,87.3z M56.8,87.2l0.1-0.7c-0.3,0-0.5,0-0.8,0c-0.5,0.7-1,1.3-1.5,1.9
		c0,0.6,0.1,1.1,0.2,1.6c1.5-1.3,4.4-0.4,3.5,2.6c0.5,0.3,0.9,0.8,1.2,1.2c1.6-2.2,0.2-5.8-2.9-5.9c-0.5,0-0.5-0.7,0-0.7
		C56.7,87.2,56.8,87.2,56.8,87.2L56.8,87.2z M69.2,61.6c0,0.4-0.3,0.7-0.7,0.7c-0.4,0-0.7-0.3-0.7-0.7c0-0.4,0.3-0.7,0.7-0.7
		C68.9,61,69.2,61.3,69.2,61.6L69.2,61.6z M71.1,59.4c0,0.4-0.3,0.7-0.7,0.7c-0.4,0-0.7-0.3-0.7-0.7c0-0.4,0.3-0.7,0.7-0.7
		C70.8,58.7,71.1,59,71.1,59.4L71.1,59.4z M67.4,64c0,0.3-0.3,0.6-0.6,0.6s-0.6-0.3-0.6-0.6s0.3-0.6,0.6-0.6S67.4,63.7,67.4,64
		L67.4,64z M47,57.6c0,0.4-0.3,0.7-0.7,0.7c-0.4,0-0.7-0.3-0.7-0.7c0-0.4,0.3-0.7,0.7-0.7C46.7,56.9,47,57.2,47,57.6L47,57.6z
		 M55.7,97.5c0.7,0,1.3-0.6,1.3-1.3c0-0.7-0.6-1.3-1.3-1.3c-0.7,0-1.3,0.6-1.3,1.3C54.4,96.9,55,97.5,55.7,97.5L55.7,97.5z
		 M55.7,98.2c-1.1,0-2-0.9-2-2c0-1.1,0.9-2,2-2c1.1,0,2,0.9,2,2C57.7,97.3,56.8,98.2,55.7,98.2L55.7,98.2z M83.2,87.1
		C83.2,87.1,83.2,87.1,83.2,87.1L83.2,87.1L83.2,87.1L83.2,87.1z M72.7,79.1c-0.2-0.6-0.3-1.3-0.2-2.1c-1.1,0.3-2.1,0.8-3,1.5
		c0.3,0.1,0.8,0.2,1.4,0.4C71.4,79,72,79.1,72.7,79.1L72.7,79.1z M73.2,76.8c-0.1,1,0,1.7,0.2,2.3c0.5,0,0.9,0,1.4-0.1
		c-0.2-0.3-0.4-0.8-0.4-1.2c0-0.5,0-0.9,0.2-1.3C74.2,76.6,73.7,76.7,73.2,76.8L73.2,76.8z M76.2,75.7c0.5,0,1-0.1,1.3,0
		c0.2,0,0.3,0.2,0.3,0.4c0,0.4-0.6,0.7-1,0.8c0.1,0.2,0.1,0.4,0.1,0.7c0.1,1-0.3,1.9-1,2.1c0,0,0,0-0.1,0c-0.8,0.1-1.7,0.2-2.7,0.2
		c-0.1,0-0.1,0-0.2,0c-1.5,0-3-0.3-4.2-0.8c0,0,0,0,0,0c-0.3,0.4-0.9-0.1-0.5-0.5c0,0,0.1-0.1,0.2-0.2c0,0,0,0,0.1-0.1
		C69.4,77.6,71.8,75.8,76.2,75.7L76.2,75.7z"/>
	<path class="st2" d="M74.5,113.9c-0.9-0.4-2.4-0.8-4-1.2c0.1,0.9,0.2,1.7,0.3,2.4C72.1,114.7,73.3,114.3,74.5,113.9L74.5,113.9z
		 M70.5,111.9c2,0.5,4.1,1.1,4.9,1.6c0.7-0.3,1.4-0.6,2.1-0.9c-1.2-0.7-4.2-1.6-6.9-2.4C70.5,110.8,70.5,111.4,70.5,111.9
		L70.5,111.9z M75.6,114.3C75.5,114.3,75.5,114.3,75.6,114.3c-2.3,0.9-4.5,1.5-6.7,2c0,0-0.1,0-0.1,0c-2,0.4-4,0.7-6,0.8
		c0,0-0.1,0-0.1,0c-6.6,0.4-12.8-0.9-17.5-3L45,114c0,0-0.1,0-0.1-0.1c-7.9-3.7-11.5-10.2-3.7-15.4c-0.8-1.3-1.8-2.6-2.9-3.9
		c-0.3-0.4-0.7-0.9-1-1.3c-0.6,1.6-0.7,2.7,0.3,4.1c0.1,0.2,0.1,0.3,0,0.5l-5.5,6.6c-0.1,0.2-0.4,0.2-0.5,0
		c-27.6-30.3,3.9-76.2,41.9-63c0.2,0.1,0.3,0.3,0.2,0.5l-6,9.9c-0.1,0.1-0.2,0.2-0.4,0.2c-1.9-0.3-3-0.2-3.8,0.5
		c1.7,0.3,3.5,0.7,5.3,1.4c1.6-1.8,3.4-3.5,5.2-5c0,0,0.1,0,0.1-0.1c0.1-0.1,0.2-0.1,0.3,0c0.1,0,0.2,0.1,0.2,0.2c0,0,0,0.1,0,0.1
		L78,59.4c0,0.1,0,0.2,0,0.3c0,0.1-0.1,0.2-0.2,0.2c-0.1,0.1-0.2,0.1-0.3,0.2c0.7,2.1,5.6,16.9,7.1,20.9c0.5,1.2,1.5,3.5,1.5,4.8
		c0,1.3-0.9,2-2.8,2.1c-1,0.9-1.1,1.3-0.6,1.9c1,1.4,0.5,2-0.7,2.9c1.1,0.9,0.9,2.5,0.3,2.5c-0.8,0-1.1,0.3-1.6,0.9
		c3.5,3.4,0.6,6.4-4.1,7.4c-1.5,0.3-3.2,0.5-5,0.4c0,0,0,0,0,0.1c-0.6,2-1,3.9-1.1,5.6c3.1,0.9,6.8,2,7.8,2.8c0,0,0.1,0.1,0.1,0.1
		c0.1,0.1,0.1,0.2,0.1,0.3c0,0.1-0.1,0.2-0.2,0.2c0,0-0.1,0-0.1,0.1C77.4,113.5,76.5,113.9,75.6,114.3L75.6,114.3z M42.9,100.7
		c0,0,0,0.1,0,0.1c0.2,0.9,0.3,1.8,0.3,2.8c2.2-1.5,1.6-4,1-5.2c-0.6,0.4-1.1,0.7-1.7,1.1C42.6,99.9,42.7,100.3,42.9,100.7
		L42.9,100.7z M42.3,101.4c-1.6,1-2.3,2.1-2.4,3.3c1-0.1,1.9-0.4,2.5-0.7C42.5,103.1,42.4,102.2,42.3,101.4L42.3,101.4z M39.8,105.4
		c0,0.5,0.2,0.9,0.4,1.4c5-0.1,8.7-5,6-9.9c-0.5,0.4-1,0.8-1.5,1.1C45.7,99.9,46.6,104.7,39.8,105.4L39.8,105.4z M40.7,107.5
		c0.4,0.6,0.9,1.1,1.5,1.6c7.3-2.1,8.8-8.2,5.9-13.7c-0.4,0.4-0.8,0.7-1.3,1.1C49.9,101.8,45.9,107.1,40.7,107.5L40.7,107.5z
		 M42.9,109.6c0.7,0.4,1.5,0.8,2.3,1.1c9-4.5,6.8-13.8,4.8-17c-0.4,0.4-0.9,0.8-1.3,1.2C51.7,100.7,50.3,107.2,42.9,109.6
		L42.9,109.6z M70.9,73.2c3.1-1.2,7-1.8,10-0.9c-1.3-4-2.7-8.1-3.5-10.5c0,4-1.9,7.8-5.8,9.4C71.4,71.9,71.2,72.6,70.9,73.2
		L70.9,73.2z M69.8,73.8c0,0,0-0.1,0.1-0.1c0.5-0.8,0.9-1.7,1.1-2.7c0,0,0-0.1,0-0.1c0.2-0.8,0.2-1.7,0.2-2.6c0,0,0-0.1,0-0.1
		c0-0.6-0.1-1.3-0.3-2c-0.5,0.5-0.9,1-1.3,1.6c0.2,2.3-0.3,4.8-2.8,7c0.1,0.7,0.1,1.4,0,2.1C68.1,75.9,69.1,74.9,69.8,73.8
		L69.8,73.8z M51.4,95c0.2-0.8,0.6-1.4,1.2-2c-0.3-0.5-0.4-1.1-0.5-1.6c-0.5,0.6-1,1.1-1.6,1.7C50.8,93.7,51.1,94.3,51.4,95L51.4,95
		z M53.1,92.6c0.4-0.3,0.9-0.5,1.4-0.7c-0.3-0.7-0.5-1.6-0.6-2.6c-0.4,0.5-0.9,1-1.3,1.5C52.7,91.4,52.9,92,53.1,92.6L53.1,92.6z
		 M36.1,95.3c0-0.8,0.3-1.7,0.7-2.7c-1.8-2.6-3.4-6-3.9-11c0,0,0-0.1,0-0.1c0-0.5-0.1-1-0.1-1.5c0,0,0-0.1,0-0.1c0-0.2,0-0.3,0-0.5
		c-0.1-1.6,0-3.3,0.3-4.9c0,0,0-0.1,0-0.1c0.1-0.5,0.2-1,0.3-1.5c0,0,0-0.1,0-0.1c1.1-4.6,3.4-9,6.7-12.6c0,0,0.1-0.1,0.1-0.1
		c1-1,2.1-2,3.2-2.9l0,0c1.8-1.4,3.8-2.5,6-3.3c0,0,0,0,0.1,0c2.7-1,5.7-1.6,8.9-1.6c0.2,0,0.4,0,0.6,0c1.2,0,2.4,0.1,3.7,0.3
		c0.6-0.7,1.2-1.1,2.1-1.2c-0.1,0-0.1,0-0.2-0.1c0,0,0,0,0,0c-1.6-0.4-3.1-0.7-4.7-0.8l0,0c-8.2-0.5-16.2,3.1-21.6,9.1l0,0
		c-1.1,1.2-2.1,2.5-3,3.9c0,0,0,0,0,0.1c-0.8,1.3-1.5,2.7-2.1,4.1c0,0,0,0,0,0c-0.6,1.4-1.1,2.9-1.4,4.4c-1.4,5.9-0.9,12.4,2.3,19
		l0,0C34.4,92.5,35.2,93.9,36.1,95.3L36.1,95.3z M37.4,92.3c0,0,0.1,0.1,0.1,0.1c0.3,0.4,0.5,0.7,0.8,1.1c1.4-1.1,2.7-2.2,4-3.4
		c-0.6-0.3-1.2-0.6-1.7-0.9c-1,1-1.6,1.4-3.3,1.4c-0.3,0-0.4-0.2-0.3-0.5c0.3-0.9,0-3.2,0-4.4c-0.1-0.2-0.3-0.5-0.4-0.7
		c-0.4,0.1-1,0.1-1.7,0.1c-0.4,0-0.5-0.3-0.2-0.6c1.1-1,0.9-2.4,1.2-4.3c-0.6,0.3-1.8,1.1-2.2,1.4C34.1,86.5,35.7,89.8,37.4,92.3
		L37.4,92.3z M40.9,96.9c14.6-9.8,20.4-27.5,33.5-38.7l-1.9-0.4c-0.4-0.1-0.4-0.1-0.3-0.5l0.3-2.7C60.3,66.9,53.6,87.1,40,95.7
		C40.3,96.1,40.6,96.5,40.9,96.9L40.9,96.9z M74.8,52.3c-0.6,0.5-1.1,1-1.6,1.5l-0.4,3.4l2.2,0.5c0.4-0.3,0.8-0.7,1.3-1L76,55.7
		c-0.6,0.2-1.3-0.1-1.6-0.8c-0.2-0.6,0.1-1.3,0.8-1.6L74.8,52.3L74.8,52.3z M43.1,90.3c-1.4,1.3-2.8,2.6-4.4,3.8l0.1,0.1
		c0.2,0.3,0.5,0.6,0.7,0.9c7.2-4.5,12.4-12.3,17.6-20.5c4.5-7.2,9.3-15.2,15.4-21.2c0,0,0.1-0.1,0.1-0.1c0.6-0.6,1.3-1.2,1.9-1.8
		L74,50c-2.4,2-4.5,4.2-6.6,6.6c0,0,0,0.1-0.1,0.1c-3.9,4.7-7.2,10-10.3,14.9c-1.7,2.6-3.3,5.2-5.1,7.8c0,0,0,0.1-0.1,0.1
		c-0.7,1-1.5,2-2.2,3.1c0,0,0,0.1-0.1,0.1c-0.5,0.7-1.1,1.4-1.7,2.1c0,0,0,0.1-0.1,0.1c-0.8,1-1.7,2-2.6,3c0,0,0,0.1-0.1,0.1
		C44.6,88.7,43.8,89.5,43.1,90.3L43.1,90.3L43.1,90.3z M42.8,89.6c0.5-0.5,1.1-1.1,1.6-1.6c-3.3-0.5-5.2-2.1-5.9-4.1
		c-0.5,0.4-0.8,0.7-1.2,0.9c0.1,0.2,0.2,0.4,0.3,0.6c0,0,0.1,0.1,0.1,0.2C39,87.7,40.5,88.4,42.8,89.6L42.8,89.6z M44.9,87.3
		c0.5-0.6,1.1-1.2,1.6-1.8c-6.1,1.7-10-7.9,0.5-11.8c-0.8-0.3-1.5-0.5-2.2-0.9C38,75.8,35.7,86.1,44.9,87.3L44.9,87.3z M47.5,84.3
		c0.5-0.7,1.1-1.3,1.6-2c0.2-1.8-0.2-3.8-2.5-4.8c-0.6,0.3-1.2,0.7-1.7,1.2c3.3,0.5,3.2,4.7,0.2,4.7c-2.5,0-2.4-3.1-1.3-4.6
		c0,0,0-0.1,0.1-0.1l0,0c0.5-0.7,1.3-1.3,2.4-1.9c0,0,0.1,0,0.1-0.1c0.8-0.4,1.8-0.7,2.9-1c0,0,0.1,0,0.1,0c0.7-0.2,1.4-0.3,2.3-0.4
		c-0.6-0.3-1.4-0.5-2.1-0.8c-0.5-0.2-1-0.3-1.6-0.5C36.9,77.6,41.4,87.5,47.5,84.3L47.5,84.3z M49.8,81.2c0.5-0.7,1-1.4,1.5-2.1
		c-0.1-0.7-0.9-2-1.8-2.7c-0.7,0.2-1.4,0.4-2.1,0.7C49.2,78.1,49.8,79.7,49.8,81.2L49.8,81.2z M51.8,78.4c0.5-0.8,1-1.5,1.5-2.3
		c-0.1-0.1-0.3-0.2-0.4-0.3c-0.7,0.1-1.6,0.2-2.6,0.4C51,76.9,51.5,77.7,51.8,78.4L51.8,78.4z M53.7,75.6c0.5-0.8,1-1.6,1.6-2.4
		c-2-0.5-5.5-0.2-7.8-0.2c0.8,0.3,1.6,0.5,2.4,0.8c1.2,0.4,2.3,0.8,3.3,1.4c0,0,0.1,0,0.1,0.1C53.4,75.4,53.6,75.5,53.7,75.6
		L53.7,75.6z M55.7,72.5c0.4-0.6,0.7-1.2,1.1-1.7c-2.2-0.7-5.7-0.5-7.9-0.5c-2.6,0-5.4,0.1-7.5-0.5c1.1,1,2.5,1.8,4,2.4
		c1.1,0.2,3.8,0,4.7,0C52.1,72.2,54.3,72.2,55.7,72.5L55.7,72.5z M57.2,70.2c0.3-0.5,0.6-1,0.9-1.5c-2.8-1.1-7.3-0.7-10.2-0.7
		c-3.3,0-6.7-0.2-8.9-2c0.3,1.1,0.8,2,1.4,2.8c3.2,1.4,9.4,0.7,13.1,0.8C54.9,69.7,56.2,69.8,57.2,70.2L57.2,70.2z M58.5,68.1
		c0.3-0.5,0.6-1,1-1.5c-1.1-0.4-2.2-0.6-3.3-0.8c0,0-0.1,0-0.1,0c-2.8-0.4-5.6-0.3-8.6-0.3c-1.9,0-3.6-0.1-5.2-0.5c0,0-0.1,0-0.1,0
		c-1.3-0.4-2.4-1.1-3.3-2.4c-0.1,0.1-0.2,0.2-0.3,0.4c0,0.6,0.1,1.1,0.2,1.7c1.8,2.4,5.3,2.7,9.2,2.7C51,67.3,55.6,66.9,58.5,68.1
		L58.5,68.1z M67.2,55.9c0.3-0.4,0.7-0.8,1-1.2c-1.9-0.6-3.7-1.1-5.5-1.3c0,0-0.1,0-0.1,0c-0.8-0.1-1.6-0.2-2.4-0.3
		c0.3,0.4,0.5,1.1,0.5,1.9c0.4,0.4,0.7,0.9,0.7,1.4c0.5-0.3,1.2-0.4,2-0.2C64,54.8,66,54.5,67.2,55.9L67.2,55.9z M27.6,98.4l6.5-4.9
		c-0.3-0.6-0.6-1.1-0.9-1.7l-5.5,3.3c-0.4,0.2-0.8-0.4-0.4-0.6l5.5-3.4c-0.2-0.5-0.4-0.9-0.6-1.4l-7.5,3.5
		C25.6,95,26.6,96.7,27.6,98.4L27.6,98.4z M34.5,94.1L28,99c1.1,1.6,2.3,3.2,3.7,4.8l5.1-6.1c-0.3-0.5-0.7-0.9-1-1.4l-4.9,4.8
		c-0.3,0.3-0.8-0.2-0.5-0.5l5-4.9C35.1,95.2,34.8,94.6,34.5,94.1L34.5,94.1z M24.6,92.6l7.5-3.5c-0.2-0.5-0.4-1-0.5-1.5l-6.1,1.8
		c-0.5,0.1-0.7-0.6-0.2-0.7l6.1-1.8c-0.2-0.7-0.4-1.3-0.5-2l-8.1,1.7C23.1,88.7,23.8,90.6,24.6,92.6L24.6,92.6z M22.5,86l8.1-1.7
		c-0.1-0.6-0.2-1.2-0.3-1.7l-6.5,0.6c-0.5,0-0.5-0.7-0.1-0.7l6.5-0.6c-0.1-0.6-0.1-1.3-0.2-1.9l-8.3-0.2
		C21.8,81.8,22.1,83.9,22.5,86L22.5,86z M21.7,79l8.3,0.2c0-0.6,0-1.1,0-1.7l-6.4-0.7c-0.5-0.1-0.4-0.8,0.1-0.7l6.4,0.7
		c0-0.7,0.1-1.4,0.2-2.1L22.2,73C21.9,75,21.7,77,21.7,79L21.7,79z M22.3,72.3l8.1,1.7c0.1-0.6,0.2-1.1,0.3-1.6l-6.2-2
		c-0.5-0.1-0.2-0.8,0.2-0.7l6.1,1.9c0.1-0.5,0.3-1.1,0.4-1.6l-7.5-3.7C23.2,68.2,22.6,70.2,22.3,72.3L22.3,72.3z M24.1,65.6l7.4,3.7
		c0.2-0.5,0.4-1.1,0.6-1.6l-5.7-3.5c-0.4-0.2,0-0.9,0.4-0.6l5.6,3.4c0.2-0.6,0.5-1.1,0.8-1.7l-6.7-5.1C25.6,62,24.8,63.8,24.1,65.6
		L24.1,65.6z M26.8,59.7l6.7,5.1c0.2-0.4,0.5-0.9,0.8-1.3l-4.9-4.7c-0.3-0.3,0.2-0.8,0.5-0.5l4.8,4.6c0.4-0.6,0.7-1.1,1.1-1.6
		l-5.6-6.5C29,56.3,27.8,57.9,26.8,59.7L26.8,59.7z M30.6,54.2l5.6,6.5c0.4-0.4,0.7-0.9,1.1-1.3l-4.2-5.7c-0.3-0.4,0.3-0.8,0.6-0.4
		l4.1,5.6c0.4-0.4,0.8-0.9,1.3-1.3l-4.4-7.6C33.2,51.2,31.9,52.6,30.6,54.2L30.6,54.2z M35.2,49.4l4.4,7.6c0.4-0.3,0.8-0.7,1.2-1
		l-2.9-6.7c-0.2-0.4,0.5-0.7,0.7-0.3l2.8,6.5c0.5-0.4,1-0.8,1.6-1.1l-2.9-8.7C38.4,46.9,36.7,48.1,35.2,49.4L35.2,49.4z M40.7,45.4
		l2.9,8.7c0.5-0.3,0.9-0.6,1.4-0.8L43.3,46c-0.1-0.5,0.6-0.6,0.7-0.2l1.7,7c0.5-0.3,1-0.5,1.5-0.8l-1.3-9.4
		C44.1,43.5,42.4,44.4,40.7,45.4L40.7,45.4z M46.6,42.4l1.3,9.4c0.5-0.2,1.1-0.4,1.7-0.6l-0.3-7.8c0-0.5,0.7-0.5,0.7,0l0.2,7.6
		c0.5-0.2,1.1-0.3,1.7-0.5l0.7-9.8C50.5,41.1,48.5,41.7,46.6,42.4L46.6,42.4z M53.3,40.6l-0.7,9.8c0.6-0.1,1.3-0.3,1.9-0.3l1.2-7.7
		c0.1-0.5,0.8-0.4,0.7,0.1l-1.1,7.5c0.5-0.1,1-0.1,1.5-0.1l2.5-9.8C57.3,40,55.3,40.2,53.3,40.6L53.3,40.6z M60.1,40l-2.5,9.8
		c0.6,0,1.3,0,1.9,0l2.4-7.7c0.1-0.5,0.8-0.2,0.7,0.2l-2.4,7.5c0.6,0.1,1.2,0.1,1.8,0.2l4.1-9.6C64.1,40.1,62.1,40,60.1,40L60.1,40z
		 M66.8,40.6l-4.1,9.6c0.5,0.1,1.1,0.2,1.6,0.4l4-7.8c0.2-0.4,0.9-0.1,0.6,0.3l-4,7.6c0.7,0.2,1.4,0.4,2.1,0.7l5.6-9.3
		C70.7,41.4,68.8,40.9,66.8,40.6L66.8,40.6z M53.9,62.1c0,0.1,0,0.1-0.1,0.2c0,0.1-0.1,0.1-0.2,0.1c0,0,0,0-0.1,0
		c-0.6,0.1-1.2,0.1-1.8,0c-0.1,0.1-0.1,0.1-0.2,0.2c0.1,0.7,0.4,1.5,1.2,2.3c0.5,0,1.1,0,1.6,0.1l1.6-6.5c-1.8-0.5-2.2-3.6,0.1-4
		c0-0.5,0.2-1,0.5-1.3c-1.2,0.1-2.4,0.2-3.6,0.5l0.3,3.7c0,0,0,0.1,0,0.1l0,0.4c0,0.5-0.7,0.5-0.7,0.1l0-0.3l-1.5-1
		c-0.4,0.3-0.6,0.8-0.6,1.3c0,1,0.8,1.8,1.8,1.8c0.2,0,0.3,0,0.5-0.1l0-0.1c0-0.5,0.7-0.5,0.7-0.1l0,0.4c0,0,0,0.1,0,0.1L53.9,62.1
		C53.9,62,53.9,62.1,53.9,62.1L53.9,62.1z M51.3,55.5l0.2,0.1c0,0,0,0,0.1,0l1.2,0.8l-0.3-2.9c-0.9,0.2-1.8,0.5-2.7,0.8
		c-1.9,2-1.6,4.2-0.5,5.6c0,0,0.1,0.1,0.1,0.1c0.9,1.1,2.4,1.7,3.8,1.5L53,60.2c-0.2,0-0.4,0.1-0.6,0.1c-1.4,0-2.5-1.1-2.5-2.5
		c0-0.7,0.3-1.3,0.8-1.8C50.6,55.7,50.9,55.3,51.3,55.5L51.3,55.5z M50.9,62.1c-0.8-0.3-1.5-0.8-2-1.3c-2.5,0.6-4.7-1.2-5.5-2.8
		c-0.9,0.7-1.7,1.4-2.4,2.1l1.5,0.4c0,0,0,0,0.1,0l0.4,0.1c0.1,0,0.1,0,0.2,0.1c0.1,0,0.1,0.1,0.1,0.1C45,62.9,49.3,62.9,50.9,62.1
		L50.9,62.1z M48.4,60.1c-1-1.4-1.2-3.2,0-5.1c-1.6,0.7-3.1,1.6-4.4,2.6C44.6,58.9,46.4,60.4,48.4,60.1L48.4,60.1z M42.7,61.3
		L42.7,61.3c-0.3,0.7-0.3,2.2-0.1,3c1.4,0.4,3,0.5,4.8,0.5c1.5,0,3,0,4.4,0c-0.5-0.6-0.8-1.3-0.9-1.9C48.8,63.7,44.6,63.4,42.7,61.3
		L42.7,61.3z M43.9,72.4c-0.5-0.2-0.9-0.5-1.3-0.8c-0.5,0.4-1,0.8-1.5,1.1c0,0,0,0-0.1,0c-0.9,0.8-1.7,1.5-2.3,2.2c0,0,0,0-0.1,0.1
		c-0.3,0.3-0.5,0.6-0.7,1c0,0,0,0.1-0.1,0.1c-0.8,1.3-1.2,2.4-1.4,3.5c-0.3,1.5-0.1,3.5-1,4.8c1.4-0.1,1.8-0.5,2.6-1.3
		C37.4,79.3,40.1,74.4,43.9,72.4L43.9,72.4z M44.4,79.3c-0.1,0.1-0.2,0.3-0.3,0.4c-0.8,1.6,0.1,2.9,1,2.9
		C47.4,82.6,47.2,79.5,44.4,79.3L44.4,79.3z M40.3,72.5c-1.2-1-2.6-2-3.3-3.5c-0.1,0.8-0.1,1.6,0.1,2.3l0,0c0.3,1.2,0.9,2.2,1.4,2.9
		C39,73.7,39.6,73.1,40.3,72.5L40.3,72.5z M37.7,86.9c0.1,1,0.2,2,0,3c1.1-0.1,1.6-0.4,2.2-1C39.1,88.3,38.4,87.7,37.7,86.9
		L37.7,86.9z M37.3,73.6L36,74.3l0.7,1.5c0.3-0.1,0.5-0.2,0.8-0.3c0.2-0.2,0.4-0.5,0.6-0.8C37.8,74.4,37.6,74,37.3,73.6L37.3,73.6z
		 M33.4,80c0,0.3,0,0.6,0.1,0.9c0.7-0.5,1.8-1.2,2.4-1.4c0.2-0.9,0.5-1.8,1-2.8c-0.1,0-0.1,0.1-0.2,0.1c0,0,0,0,0,0
		C35.1,77.6,33.7,79.4,33.4,80L33.4,80z M33.5,75.4c-0.1,1.1-0.2,2.2-0.2,3.3c0.3-0.5,0.8-1,1.3-1.5L33.5,75.4L33.5,75.4z
		 M33.9,73.1c-0.1,0.4-0.2,0.9-0.2,1.3l1.5,2.5c0.3-0.2,0.5-0.4,0.8-0.6c-1.2-2.6-1.5-2,1-3.2c-0.2-0.4-0.3-0.8-0.5-1.2
		C35.9,72,34.8,72.4,33.9,73.1L33.9,73.1z M37.9,63.9c-1.7,2.5-3,5.3-3.7,8.2c0.8-0.5,1.6-0.8,2.2-1c-0.2-1.1-0.2-2.2,0.3-3.5
		c0.2-0.4,0.6-0.4,0.7,0.1c0.3,1.8,2.1,3.2,3.5,4.3c0.3-0.3,0.7-0.6,1.1-0.8C39.9,69.7,38.3,67.5,37.9,63.9L37.9,63.9z M40.4,60.7
		c-0.4,0.4-0.8,0.8-1.1,1.3c0.7,1,1.6,1.6,2.6,2.1c-0.1-0.9-0.1-2.1,0.1-2.9L40.4,60.7L40.4,60.7z M60.5,58.4
		c-0.3,0.2-0.7,0.3-1.2,0.3c-0.1,1-0.3,2.1-0.1,3.1l1.9-2C60.7,59.3,60.5,58.8,60.5,58.4L60.5,58.4z M58.3,60.5
		c-0.5-0.1-1.1-0.3-1.3-0.9c-0.1-0.2,0.7-0.1,0.8-0.1c0.2,0,0.4,0,0.6-0.1c0-0.4,0.1-0.8,0.2-1.2c0,0,0,0,0,0c0-0.1,0-0.3,0.1-0.4
		c0.1-0.5,0.8-0.4,0.7,0.1c2.1-0.2,1.7-3.2-0.5-2.7c-0.5,0.1-0.6-0.6-0.1-0.7c0.5-0.1,0.9-0.1,1.3,0c-0.2-3-4.9-1.2-2.2,1.1
		c0.4,0.3-0.1,0.9-0.5,0.5c-0.5-0.4-0.8-0.8-0.9-1.2c-1.6,0.3-1.2,2.3-0.1,2.6l0-0.1c0.1-0.5,0.8-0.3,0.7,0.2l-0.1,0.4c0,0,0,0,0,0
		L55.2,65c0.3,0,0.6,0.1,0.9,0.1l2.5-2.7C58.4,61.8,58.3,61.2,58.3,60.5L58.3,60.5z M61.9,63c-0.4-0.5-0.5-1.3-0.4-2
		c0.1-0.3,0.4,0.2,0.5,0.3c0.2,0.2,0.5,0.3,0.8,0.5c0.6-0.9,1.2-1.7,1.8-2.6c0.7-0.9,1.4-1.9,2.2-2.8c-1.2-1.5-3.3-0.6-2.7,1.7
		c0.1,0.5-0.6,0.6-0.7,0.2c-0.1-0.5-0.2-1-0.1-1.4c-1.6-0.5-2.7,0.9-1.7,2.3c0.3-0.3,0.8,0.2,0.5,0.5l-2.8,3c0,0-0.1,0.1-0.1,0.1
		l-2.2,2.4c1,0.2,2,0.4,3,0.8C60.5,65,61.2,64,61.9,63L61.9,63z M58.7,83c4-1.6,5.2-4.8,5-7.3c-0.9,1.3-1.8,2.6-2.6,3.9
		C60.3,80.7,59.5,81.8,58.7,83L58.7,83z M66.6,73.9c1.7-1.7,2.2-3.6,2.2-5.3c-0.9,1.2-1.8,2.4-2.7,3.6
		C66.3,72.8,66.5,73.3,66.6,73.9L66.6,73.9z M71.8,67.5c1.8-1.5,2.5-3,2.5-4.9c-1,0.9-1.9,1.8-2.8,2.8
		C71.6,66.2,71.7,66.9,71.8,67.5L71.8,67.5z M71.7,70.4c3.7-1.7,5.2-5.7,4.9-9.8c-0.6,0.4-1.2,0.9-1.7,1.4c0.2,2.5-0.7,4.5-3.1,6.3
		C71.8,69.1,71.8,69.8,71.7,70.4L71.7,70.4z M57.3,85.8C57.3,85.8,57.3,85.8,57.3,85.8c4.2-0.4,7.9-3.7,8.7-8.2c0,0,0-0.1,0-0.1
		c0.1-0.9,0.2-1.8,0.1-2.8c0,0,0-0.1,0-0.1c-0.1-0.6-0.2-1.1-0.4-1.7c-0.4,0.6-0.9,1.2-1.3,1.9c0.6,3.2-0.8,7.6-6.3,9.2
		c-0.4,0.6-0.9,1.2-1.4,1.8C56.9,85.8,57.1,85.8,57.3,85.8L57.3,85.8z M41.9,98.5C41.9,98.5,41.9,98.5,41.9,98.5
		c0.1,0.2,0.2,0.3,0.2,0.4c1.4-0.8,2.7-1.7,4-2.8c0,0,0,0,0.1,0c0.6-0.5,1.2-1,1.8-1.5c0,0,0.1-0.1,0.1-0.1c0.6-0.5,1.1-1.1,1.7-1.6
		c0,0,0-0.1,0.1-0.1c0.7-0.7,1.5-1.5,2.2-2.3c0,0,0.1-0.1,0.1-0.1c0.6-0.7,1.3-1.5,1.9-2.2c0-0.1,0.1-0.1,0.1-0.1
		c0.5-0.7,1.1-1.4,1.6-2.1c0-0.1,0,0,0.1-0.1c0.6-0.8,1.2-1.6,1.7-2.4c0,0,0-0.1,0.1-0.1c2.1-2.9,4.1-5.9,6.1-8.9c0,0,0-0.1,0.1-0.1
		c0.6-0.8,1.1-1.7,1.7-2.5c0,0,0-0.1,0.1-0.1c1-1.4,2-2.7,3-4c0.1-0.1,0.2-0.2,0.3-0.4c0,0,0-0.1,0.1-0.1c0.6-0.7,1.2-1.5,1.8-2.2
		c0,0,0-0.1,0.1-0.1c1.1-1.2,2.3-2.4,3.4-3.5c0,0,0.1-0.1,0.1-0.1c0.8-0.7,1.5-1.3,2.3-1.8c0,0,0.1-0.1,0.1-0.1l0.1-0.1
		c0,0,0,0,0.1,0c0.1-0.1,0.2-0.2,0.3-0.2l-0.7-2c-0.4,0.3-0.8,0.6-1.1,0.9c0,0,0,0-0.1,0.1C61.9,69.5,56.2,87.6,41.3,97.5
		C41.5,97.8,41.7,98.1,41.9,98.5L41.9,98.5z M54.7,99.8C54.7,99.8,54.8,99.8,54.7,99.8c0.4,0.1,0.7,0.1,1,0.1c0.9,0,1.7-0.3,2.4-0.8
		c0,0,0,0,0,0c0.8-0.7,1.3-1.7,1.3-2.8c0-0.6-0.1-1.1-0.3-1.5c0,0,0-0.1,0-0.1c-0.6-1.2-1.9-2.1-3.3-2.1c-0.2,0-0.4,0-0.5,0l-0.1,0
		c-0.7,0.1-1.3,0.4-1.8,0.8l-0.1,0c-0.8,0.7-1.3,1.7-1.3,2.8C52,97.9,53.1,99.4,54.7,99.8L54.7,99.8z M45.1,113.3
		c1.1-0.4,2.1-0.9,2.9-1.4c0,0,0.1-0.1,0.1-0.1c0.8-0.5,1.5-1.1,2.2-1.7c0,0,0-0.1,0.1-0.1c3.2-3.2,4.1-7.3,4-9.6
		c-0.7-0.2-1.4-0.7-1.9-1.2c0.4,4.1-0.9,9.1-7,12.1c-0.1,0.1-0.1,0.1-0.2,0.1c0,0-0.1,0-0.2,0c-1-0.3-2.1-0.9-3-1.5
		c-0.1-0.1-0.1-0.1-0.2-0.2c-0.8-0.6-1.5-1.4-2-2.2c-0.1-0.1-0.1-0.1-0.1-0.2c-1.2-2.1-1-4.5,2.4-6.5c-0.2-0.5-0.4-1-0.6-1.5
		C34.6,103.9,37.3,109.7,45.1,113.3L45.1,113.3z M48.3,112.5c-0.7,0.4-1.5,0.8-2.3,1.2c4.1,1.7,9.4,2.8,15,2.7
		C57.7,115.1,51.5,113.2,48.3,112.5L48.3,112.5z M50.7,110.7c-0.5,0.4-1,0.9-1.5,1.2c4,0.9,11.1,3.2,13.6,4.3
		c1.5-0.1,3.1-0.3,4.6-0.5C63.1,114.4,54.5,111.7,50.7,110.7L50.7,110.7z M55,100.6c0,2.4-0.8,6.4-3.8,9.6c4.4,1.1,14,4.1,17.5,5.4
		c0.5-0.1,1-0.2,1.4-0.3c-0.6-2.8-0.6-6.9,0.8-11.4c-4-0.3-8.5-1.5-12.7-4.1c-0.7,0.5-1.6,0.9-2.6,0.9
		C55.5,100.6,55.2,100.6,55,100.6L55,100.6z M55,90.9c0.1,0.3,0.2,0.6,0.3,0.9c0.1,0,0.3,0,0.4,0c0.7,0,1.4,0.2,2,0.5
		C58.1,90.3,56.2,89.5,55,90.9L55,90.9z M57.6,87.3c3.2,0.8,4.3,4.8,2.3,7.2c0.2,0.5,0.3,1.1,0.3,1.7c0,1.2-0.5,2.3-1.2,3.1
		c6.2,3.8,13.2,4.5,17.8,3.5c4.8-1,6.5-3.6,3.5-6.4c-0.5-0.5,0.9-1.8,2-1.9c0.1-0.7-0.2-1.2-0.7-1.5c-1.5-0.1-3.9,0.6-5.5,1
		c-0.1,0.3-0.6,0.4-0.7,0c-0.2-0.5,0.3-1.3,0.4-1.5c0.2-0.5,0.8-0.2,0.6,0.3c-0.1,0.1-0.2,0.3-0.2,0.5c1.6-0.4,3.8-1.1,5.4-1
		c0.4-0.3,1.4-1,1.2-1.6c-0.1-0.1-0.2-0.3-0.4-0.6c-0.8-1-0.4-1.7,0.3-2.5c-1.2-0.2-2.8,0-3.6,0.9c-0.5,0.5-1.3-0.9-1.4-1.1
		c-0.3-0.8-0.3-1.8,0.9-2.9c0.3-0.3,0.8,0.2,0.5,0.5c-0.9,0.9-1.2,1.8-0.3,2.7l0,0c1.3-1,3.1-1.2,4.6-0.8l0,0l0,0
		c2.7-0.2,2.5-1.3,1.8-3.2c-0.3-0.8-0.7-1.7-1-2.7c-0.6-1.5-1.7-4.6-2.8-8c-3.1-1.2-7.5-0.5-10.8,1c-0.8,1.3-2,2.5-3.7,3.7
		c-0.8,4.6-4.6,8.1-9,8.6L57.6,87.3L57.6,87.3z M56.8,87.2l0.1-0.7c-0.3,0-0.5,0-0.8,0c-0.5,0.7-1,1.3-1.5,1.9
		c0,0.6,0.1,1.1,0.2,1.6c1.5-1.3,4.4-0.4,3.5,2.6c0.5,0.3,0.9,0.8,1.2,1.2c1.6-2.2,0.2-5.8-2.9-5.9c-0.5,0-0.5-0.7,0-0.7
		C56.7,87.2,56.8,87.2,56.8,87.2L56.8,87.2z M69.2,61.6c0,0.4-0.3,0.7-0.7,0.7c-0.4,0-0.7-0.3-0.7-0.7c0-0.4,0.3-0.7,0.7-0.7
		C68.9,61,69.2,61.3,69.2,61.6L69.2,61.6z M71.1,59.4c0,0.4-0.3,0.7-0.7,0.7c-0.4,0-0.7-0.3-0.7-0.7c0-0.4,0.3-0.7,0.7-0.7
		C70.8,58.7,71.1,59,71.1,59.4L71.1,59.4z M67.4,64c0,0.3-0.3,0.6-0.6,0.6s-0.6-0.3-0.6-0.6s0.3-0.6,0.6-0.6S67.4,63.7,67.4,64
		L67.4,64z M47,57.6c0,0.4-0.3,0.7-0.7,0.7c-0.4,0-0.7-0.3-0.7-0.7c0-0.4,0.3-0.7,0.7-0.7C46.7,56.9,47,57.2,47,57.6L47,57.6z
		 M55.7,97.5c0.7,0,1.3-0.6,1.3-1.3c0-0.7-0.6-1.3-1.3-1.3c-0.7,0-1.3,0.6-1.3,1.3C54.4,96.9,55,97.5,55.7,97.5L55.7,97.5z
		 M55.7,98.2c-1.1,0-2-0.9-2-2c0-1.1,0.9-2,2-2c1.1,0,2,0.9,2,2C57.7,97.3,56.8,98.2,55.7,98.2L55.7,98.2z M83.2,87.1
		C83.2,87.1,83.2,87.1,83.2,87.1L83.2,87.1L83.2,87.1L83.2,87.1z M72.7,79.1c-0.2-0.6-0.3-1.3-0.2-2.1c-1.1,0.3-2.1,0.8-3,1.5
		c0.3,0.1,0.8,0.2,1.4,0.4C71.4,79,72,79.1,72.7,79.1L72.7,79.1z M73.2,76.8c-0.1,1,0,1.7,0.2,2.3c0.5,0,0.9,0,1.4-0.1
		c-0.2-0.3-0.4-0.8-0.4-1.2c0-0.5,0-0.9,0.2-1.3C74.2,76.6,73.7,76.7,73.2,76.8L73.2,76.8z M76.2,75.7c0.5,0,1-0.1,1.3,0
		c0.2,0,0.3,0.2,0.3,0.4c0,0.4-0.6,0.7-1,0.8c0.1,0.2,0.1,0.4,0.1,0.7c0.1,1-0.3,1.9-1,2.1c0,0,0,0-0.1,0c-0.8,0.1-1.7,0.2-2.7,0.2
		c-0.1,0-0.1,0-0.2,0c-1.5,0-3-0.3-4.2-0.8c0,0,0,0,0,0c-0.3,0.4-0.9-0.1-0.5-0.5c0,0,0.1-0.1,0.2-0.2c0,0,0,0,0.1-0.1
		C69.4,77.6,71.8,75.8,76.2,75.7L76.2,75.7z"/>
	<path class="st1" d="M101.7,48.7V50h4v12.4h1.5V50h4v-1.3H101.7L101.7,48.7z M114.3,48.7v13.7h7.4v-1.3h-5.9V56h5.4v-1.3h-5.4V50
		h5.9v-1.3H114.3L114.3,48.7z M131.9,49.6c1.3,0,2.5,0.3,3.5,1l0.6-1.1c-1.3-0.7-2.6-1-4.1-1c-4,0-7.2,2.9-7.2,7.1
		c0,4.5,3.2,7.1,7.2,7.1c1.4,0,2.9-0.5,4.1-1.2l-0.5-1c-1.1,0.6-2.3,1-3.5,1c-3.3,0-5.7-2.6-5.7-5.9
		C126.2,52.2,128.5,49.6,131.9,49.6L131.9,49.6z M139.5,48.7v13.7h1.5l0-6.6h7.5v6.6h1.5V48.7h-1.5v5.9H141l0-5.9H139.5L139.5,48.7z
		 M156.5,48.4l-1.6,0.4v13.6h1.5l0-11.8l8,12.1l1.6-0.4V48.7h-1.4l0,11.7L156.5,48.4L156.5,48.4z M171.5,48.7v13.7h1.5V48.7H171.5
		L171.5,48.7z M180.9,61.6c-1.1,0-2.2-0.5-2.9-1l-0.6,1c1.1,0.7,2.2,1,3.6,1c3,0,4.4-1.9,4.4-3.9c0-2.1-1.5-3-3-3.7l-1.2-0.6
		c-1-0.5-2.1-1.2-2.1-2.4c0-1.8,1.5-2.6,2.7-2.6c1.3,0,2.1,0.4,2.9,1l0.5-1c-1.1-0.6-2.2-1-3.5-1c-2.4,0-4.1,1.5-4.1,3.5
		c0,2.9,2.1,3.4,4.1,4.4c1.1,0.5,2,1.2,2,2.6C183.8,60.5,182.5,61.6,180.9,61.6L180.9,61.6z M195.9,49.6c1.3,0,2.5,0.3,3.5,1
		l0.6-1.1c-1.3-0.7-2.6-1-4.1-1c-4,0-7.2,2.9-7.2,7.1c0,4.5,3.2,7.1,7.2,7.1c1.4,0,2.9-0.5,4.1-1.2l-0.5-1c-1.1,0.6-2.3,1-3.5,1
		c-3.3,0-5.7-2.6-5.7-5.9C190.2,52.2,192.6,49.6,195.9,49.6L195.9,49.6z M203.9,48.7v13.7h1.5v-6.6h7.5v6.6h1.5V48.7h-1.5v5.9h-7.5
		v-5.9H203.9L203.9,48.7z M219.3,48.7v13.7h7.5v-1.3h-5.9V56h5.4v-1.3h-5.4V50h5.9v-1.3H219.3L219.3,48.7z M113.9,80.3v-9h-1.5
		l0,8.8c0,3.1-1.5,4-3.8,4c-2.6,0-3.7-1.4-3.7-4v-8.8h-1.6l0,9.1c0,3.1,1.8,4.8,5.2,4.8C111.1,85.3,113.9,84.5,113.9,80.3
		L113.9,80.3z M119.8,71.1l-1.6,0.4v13.6h1.5l0-11.8l8,12.1l1.6-0.4V71.4h-1.4l0,11.7L119.8,71.1L119.8,71.1z M134.2,71.4v13.7h1.5
		V71.4H134.2L134.2,71.4z M140.1,71.2l-1.5,0.5l5.2,13.4h1.5l5.3-13.4l-1.5-0.5l-4.5,12.3L140.1,71.2L140.1,71.2z M153.6,71.4v13.7
		h7.4v-1.3h-5.9v-5.2h5.3v-1.3h-5.3v-4.7h5.9v-1.3H153.6L153.6,71.4z M168,78h-1.8v-5.5h2.2c2.4,0,3.1,1.2,3.1,2.7
		C171.5,77.5,169.8,78,168,78L168,78z M168.8,71.4l-4.1,0v13.7h1.5v-5.9h1.3c1,0,1.5,0.4,2.1,1.1l0.6,0.8l3.2,4.4l1.3-0.8L172,81
		c-0.5-0.7-1.3-1.9-2.1-2.2l0-0.3c1.9-0.3,3-1.3,3-3.6C172.9,72.8,171.4,71.4,168.8,71.4L168.8,71.4z M180.2,84.3
		c-1.1,0-2.2-0.5-2.9-1l-0.6,1c1.1,0.7,2.2,1,3.6,1c3,0,4.4-1.9,4.4-3.9c0-2.1-1.5-3-3-3.7l-1.2-0.6c-1-0.5-2.1-1.2-2.1-2.4
		c0-1.8,1.5-2.6,2.7-2.6c1.3,0,2.1,0.5,2.9,1l0.5-1c-1.1-0.6-2.2-1-3.5-1c-2.4,0-4.1,1.5-4.1,3.5c0,2.9,2.1,3.4,4.1,4.4
		c1.1,0.5,2,1.2,2,2.6C183.1,83.3,181.9,84.3,180.2,84.3L180.2,84.3z M188.8,71.4v13.7h1.5V71.4H188.8L188.8,71.4z M193.3,71.4v1.3
		h4v12.4h1.5V72.6h4v-1.3H193.3L193.3,71.4z M209.8,72.7l2.5,6.8h-5.1L209.8,72.7L209.8,72.7z M216,84.9l-5.4-13.5H209l-5.6,13.5
		l1.5,0.5l1.8-4.8h6l1.8,4.8L216,84.9L216,84.9z M213.7,70.5h-1.4v1.8h1.4V70.5L213.7,70.5z M207.3,72.3v-1.8h-1.4v1.8H207.3
		L207.3,72.3z M217.4,71.4v1.3h4l0,12.4h1.5l0-12.4h4v-1.3H217.4L217.4,71.4z M106.8,106.5h-2V95.2l2.3,0c3.8,0,6.3,1.9,6.3,5.6
		C113.5,104.4,110.9,106.5,106.8,106.5L106.8,106.5z M107.5,94l-4.2,0v13.7h3.7c4.7,0,7.9-2.4,7.9-7C114.9,97.3,113,94,107.5,94
		L107.5,94z M123.4,95.4l2.5,6.8h-5.1L123.4,95.4L123.4,95.4z M129.6,107.5L124.2,94h-1.6l-5.6,13.5l1.5,0.5l1.8-4.8h6l1.8,4.8
		L129.6,107.5L129.6,107.5z M136.6,100.7h-1.8v-5.5h2.2c2.4,0,3.1,1.2,3.1,2.7C140.1,100.1,138.4,100.7,136.6,100.7L136.6,100.7z
		 M137.4,94l-4.1,0v13.7h1.5v-5.9h1.3c1,0,1.5,0.4,2.1,1.1l0.6,0.8l3.2,4.4l1.3-0.8l-2.7-3.6c-0.5-0.7-1.3-1.9-2.1-2.1l0-0.3
		c1.9-0.3,3-1.3,3-3.6C141.5,95.5,140,94,137.4,94L137.4,94z M151.8,94h-1.7l-3.8,13.5l1.5,0.4l3.2-11.9l3.5,11.6h1.7l3.5-11.7
		l3.2,11.9l1.5-0.4L160.5,94h-1.7l-3.5,11.9L151.8,94L151.8,94z M170.9,106.9c-1.1,0-2.2-0.5-2.9-1l-0.6,1c1.1,0.7,2.2,1,3.6,1
		c3,0,4.4-1.9,4.4-3.9c0-2.1-1.5-3-3-3.7l-1.2-0.6c-1-0.5-2.1-1.2-2.1-2.4c0-1.8,1.5-2.6,2.7-2.6c1.3,0,2.1,0.4,2.9,1l0.5-1
		c-1.1-0.6-2.2-1-3.5-1c-2.4,0-4.1,1.5-4.1,3.5c0,2.9,2.1,3.4,4.1,4.4c1.1,0.5,2,1.2,2,2.6C173.8,105.9,172.6,106.9,170.9,106.9
		L170.9,106.9z M177.9,94v1.3h4v12.4h1.5V95.3h4V94H177.9L177.9,94z M194.6,95.4l2.5,6.8H192L194.6,95.4L194.6,95.4z M200.8,107.6
		L195.4,94h-1.6l-5.6,13.5l1.5,0.5l1.8-4.8h6l1.8,4.8L200.8,107.6L200.8,107.6z M207.5,106.5h-2V95.2l2.3,0c3.8,0,6.3,1.9,6.3,5.6
		C214.1,104.4,211.5,106.5,207.5,106.5L207.5,106.5z M208.1,94l-4.2,0v13.7h3.7c4.7,0,7.9-2.4,7.9-7C215.5,97.3,213.6,94,208.1,94
		L208.1,94z M217.4,94v1.3h4v12.4h1.5V95.3h4V94H217.4L217.4,94z"/>
</g>
</svg>
